PathFileType	4	(X/Y/Z)	OpenSim_Sub01_EMGStiffKnee_Magnet.trc
DataRate	CameraRate	NumFrames	NumMarkers	Units	OrigDataRate	OrigDataStartFrame	OrigNumFrames
100	100	33	8	m	100	1392	5567
Frame#	Time	torso_imu_offset_imu	pelvis_imu_offset_imu	tibia_r_imu_offset_imu	femur_r_imu_offset_imu	tibia_l_imu_offset_imu	femur_l_imu_offset_imu	toes_r_imu_offset_imu	toes_l_imu_offset_imu
				X1	Y1	Z1	X2	Y2	Z2	X3	Y3	Z3	X4	Y4	Z4	X5	Y5	Z5	X6	Y6	Z6	X7	Y7	Z7	X8		Y8	Z8	

1392	13.91000000	-0.90894937	-0.14231435	0.13197009	-0.68953739	0.13872340	-0.60964746	-0.56962993	-0.53959552	-0.06058079	-0.79512018	-0.24573947	0.06762563	-0.50119393	0.60658979	0.23241300	-0.39255432	0.09141549	0.37822838	-0.71204958	-0.11551401	-0.35557233	-0.72694796	-0.18886402	-0.29561754
1393	13.92000000	-0.90895595	-0.14493063	0.13742451	-0.68635477	0.13879632	-0.61083246	-0.59635085	-0.51141504	-0.05896081	-0.79287073	-0.24663633	0.06833694	-0.49497664	0.61015980	0.23101183	-0.38982758	0.09332829	0.38183642	-0.70118268	-0.11202017	-0.38356272	-0.73018523	-0.19069501	-0.29146733
1394	13.93000000	-0.90771313	-0.14641812	0.14143976	-0.68579389	0.13907828	-0.61194050	-0.62059058	-0.48317572	-0.05692480	-0.78815031	-0.24864141	0.06758779	-0.48736101	0.61452761	0.22777132	-0.38869916	0.09361529	0.38677268	-0.69138310	-0.10860356	-0.41080014	-0.73426755	-0.19050626	-0.28838377
1395	13.94000000	-0.90668789	-0.14788226	0.14339749	-0.68840703	0.13855393	-0.61258090	-0.64157892	-0.45464747	-0.05589066	-0.78385298	-0.24977319	0.06598037	-0.48092915	0.61939656	0.22459415	-0.38634773	0.09499176	0.39094815	-0.68161054	-0.09949871	-0.43864039	-0.73725497	-0.19020632	-0.28412504
1396	13.95000000	-0.90694454	-0.14976159	0.14331011	-0.69368504	0.13657016	-0.61256825	-0.65902355	-0.42583740	-0.05664477	-0.78218700	-0.24894882	0.06406781	-0.47718909	0.62452373	0.22281385	-0.38119676	0.09908952	0.39305422	-0.67085714	-0.08154488	-0.46751566	-0.73791576	-0.19104131	-0.27756616
1397	13.96000000	-0.90823771	-0.15042663	0.14300732	-0.69798534	0.13361833	-0.61233634	-0.67404674	-0.39748851	-0.05799344	-0.78315039	-0.24783879	0.06219365	-0.47433516	0.62987538	0.22195086	-0.37552419	0.10417445	0.39421901	-0.65829619	-0.05954868	-0.49509484	-0.73719206	-0.19214644	-0.27100841
1398	13.97000000	-0.91005265	-0.14803834	0.14449919	-0.69741120	0.13036962	-0.61241645	-0.68795602	-0.37048220	-0.05847707	-0.78623941	-0.24849502	0.06065623	-0.47007389	0.63543645	0.22121307	-0.37212543	0.10802240	0.39594871	-0.64321104	-0.03949088	-0.51870144	-0.73638837	-0.19236476	-0.26715292
1399	13.98000000	-0.91146724	-0.14334278	0.14746743	-0.69293121	0.12702002	-0.61308542	-0.70091698	-0.34573454	-0.05813463	-0.78955660	-0.25106037	0.05965777	-0.46397984	0.64089275	0.22014764	-0.37087573	0.11038806	0.39866468	-0.62603145	-0.02287899	-0.53813536	-0.73621708	-0.19200717	-0.26520575
1400	13.99000000	-0.91124632	-0.13907542	0.14980199	-0.68925791	0.12339986	-0.61442404	-0.71221622	-0.32418817	-0.05815826	-0.79013277	-0.25420835	0.05932650	-0.45706537	0.64570014	0.21856300	-0.36940286	0.11254927	0.40195313	-0.60807003	-0.00777759	-0.55510205	-0.73693459	-0.19251398	-0.26168366
1401	14.00000000	-0.90886282	-0.13716871	0.15015398	-0.68940636	0.11958024	-0.61632361	-0.72119029	-0.30656464	-0.05913653	-0.78642818	-0.25691748	0.05978895	-0.45010641	0.64975015	0.21643102	-0.36599685	0.11553024	0.40526202	-0.59114453	0.00713255	-0.57039604	-0.73857002	-0.19458708	-0.25461469
1402	14.01000000	-0.90591763	-0.13701703	0.14957309	-0.69106144	0.11637552	-0.61812725	-0.72739138	-0.29292657	-0.05977638	-0.78123255	-0.25918504	0.06117229	-0.44306647	0.65424651	0.21418920	-0.36108713	0.11948498	0.40769249	-0.57850624	0.02107637	-0.58195937	-0.74051192	-0.19664804	-0.24672318
1403	14.02000000	-0.90430010	-0.13755427	0.14948623	-0.69110389	0.11462658	-0.61911261	-0.73046083	-0.28325217	-0.05855663	-0.77794872	-0.26115832	0.06356625	-0.43575806	0.66050976	0.21233429	-0.35553220	0.12438072	0.40840976	-0.57347312	0.03284912	-0.58732539	-0.74209559	-0.19684526	-0.24136647
1404	14.03000000	-0.90432930	-0.13784526	0.15032872	-0.68912762	0.11351494	-0.61909435	-0.73077778	-0.27808006	-0.05574763	-0.77717677	-0.26241140	0.06649799	-0.42798161	0.66797879	0.21096136	-0.35069184	0.12979658	0.40849813	-0.57639510	0.04060931	-0.58580329	-0.74363162	-0.19554905	-0.23838192
1405	14.04000000	-0.90511560	-0.13705604	0.15177240	-0.68681473	0.11094547	-0.61830074	-0.72928907	-0.27837997	-0.05299829	-0.77735972	-0.26207738	0.06906229	-0.41952831	0.67464479	0.20985605	-0.34831082	0.13501311	0.41051791	-0.58533756	0.04202643	-0.57806954	-0.74618101	-0.19483924	-0.23489769
1406	14.05000000	-0.90596311	-0.13478697	0.15329567	-0.68541593	0.10585578	-0.61726833	-0.72662573	-0.28478662	-0.05123897	-0.77754293	-0.25964871	0.07116280	-0.41027513	0.67949299	0.20859419	-0.34893226	0.13954930	0.41540098	-0.59863490	0.03625905	-0.56509762	-0.75030873	-0.19572025	-0.22866870
1407	14.06000000	-0.90684393	-0.13192132	0.15386041	-0.68474026	0.10034967	-0.61741813	-0.72243691	-0.29690628	-0.04915960	-0.77872650	-0.25571931	0.07513973	-0.40035471	0.68457304	0.20615176	-0.34949927	0.14365553	0.41912762	-0.61559557	0.02692768	-0.54863909	-0.75504855	-0.19587039	-0.21951920
1408	14.07000000	-0.90784259	-0.12952596	0.15243487	-0.68432313	0.09697550	-0.62020286	-0.71626493	-0.31398860	-0.04514048	-0.78207819	-0.25112332	0.08350005	-0.38995580	0.69228952	0.20150147	-0.34655873	0.14768088	0.41714567	-0.63565259	0.01815688	-0.53051623	-0.75922907	-0.19261952	-0.20766737
1409	14.08000000	-0.90887776	-0.12786570	0.14951084	-0.68359326	0.09617477	-0.62510307	-0.70876960	-0.33279204	-0.03912688	-0.78586692	-0.24724218	0.09450605	-0.37940028	0.70188063	0.19522682	-0.34068793	0.15142822	0.41063399	-0.65740839	0.00926946	-0.51145673	-0.76284585	-0.18728499	-0.19350060
1410	14.09000000	-0.90974045	-0.12658804	0.14675273	-0.68189761	0.09676724	-0.63008140	-0.70147047	-0.34815917	-0.03226854	-0.78613158	-0.24587787	0.10315391	-0.36911229	0.71014819	0.18915057	-0.33556594	0.15428026	0.40518163	-0.67882621	-0.00410620	-0.49134599	-0.76679230	-0.18425228	-0.17753652
1411	14.10000000	-0.91020401	-0.12546345	0.14549627	-0.67907521	0.09772777	-0.63343156	-0.69529635	-0.35726810	-0.02531915	-0.78082077	-0.24784300	0.10636012	-0.35933848	0.71532555	0.18417685	-0.33385654	0.15601122	0.40436405	-0.69810091	-0.02380553	-0.47046384	-0.77149626	-0.18595672	-0.16023405
1412	14.11000000	-0.90999917	-0.12467508	0.14601098	-0.67643346	0.09861620	-0.63454693	-0.68935481	-0.36438338	-0.01776375	-0.77372812	-0.25097814	0.10699679	-0.34979009	0.72008593	0.17838553	-0.33496952	0.15759081	0.40543644	-0.71416444	-0.04384557	-0.45032652	-0.77593343	-0.18880448	-0.14186763
1413	14.12000000	-0.90891306	-0.12442195	0.14824118	-0.67546276	0.09908612	-0.63310410	-0.68248119	-0.37477677	-0.00895530	-0.76947119	-0.25265921	0.10890008	-0.34007981	0.72766167	0.16957211	-0.33774159	0.16013623	0.40467065	-0.72613768	-0.05723831	-0.43263974	-0.77890265	-0.18837216	-0.12258524
1414	14.13000000	-0.90769455	-0.12399859	0.15021539	-0.67633012	0.09857645	-0.62997488	-0.67447492	-0.38918709	0.00021896	-0.76882558	-0.25153168	0.11385475	-0.32982671	0.73736887	0.15909031	-0.34143677	0.16366378	0.40110932	-0.73392959	-0.06358673	-0.41852325	-0.78057430	-0.18450280	-0.10115236
1415	14.14000000	-0.90783234	-0.12200388	0.14848886	-0.67818375	0.09636113	-0.62695084	-0.66587769	-0.40486408	0.00769146	-0.76960960	-0.24721939	0.12206593	-0.31865493	0.74551012	0.15103173	-0.34564790	0.16734246	0.39592781	-0.73805589	-0.06756634	-0.40864512	-0.78217412	-0.18032253	-0.07527132
1416	14.15000000	-0.91011912	-0.11782647	0.14167432	-0.68018668	0.09207269	-0.62548379	-0.65729619	-0.41948673	0.01229601	-0.76990622	-0.24087812	0.13303081	-0.30644136	0.74999250	0.14783770	-0.34987210	0.17048091	0.39004791	-0.73916403	-0.07238353	-0.40286032	-0.78441500	-0.17750620	-0.04399568
1417	14.16000000	-0.91322300	-0.11325494	0.13461055	-0.68162376	0.08642191	-0.62594561	-0.64947350	-0.43227615	0.01563509	-0.76881072	-0.23814071	0.14426370	-0.29381350	0.75372100	0.14683660	-0.35329681	0.17286746	0.38347498	-0.73824654	-0.07649162	-0.39864219	-0.78640526	-0.17316528	-0.01047539
1418	14.17000000	-0.91552690	-0.11034636	0.13286121	-0.68187426	0.08029951	-0.62844928	-0.64311395	-0.44278453	0.01970362	-0.76565065	-0.24497567	0.15303847	-0.28148411	0.76024809	0.14459207	-0.35519277	0.17439485	0.37603352	-0.73638340	-0.07762066	-0.39319326	-0.78704096	-0.16387733	0.02153944
1419	14.18000000	-0.91702435	-0.10853617	0.13561177	-0.68139351	0.07430651	-0.63222137	-0.63796403	-0.45125212	0.02470972	-0.76042813	-0.25998824	0.15851608	-0.26936534	0.76898893	0.14036897	-0.35693366	0.17519087	0.36737745	-0.73500788	-0.07582767	-0.38625252	-0.78648103	-0.15085555	0.05065048
1420	14.19000000	-0.91894825	-0.10524252	0.13713947	-0.68146467	0.06882068	-0.63580651	-0.63303338	-0.45844863	0.02948622	-0.75366467	-0.27611717	0.16131014	-0.25675304	0.77617486	0.13551147	-0.36151075	0.17556403	0.35702977	-0.73582439	-0.07296077	-0.37951110	-0.78585648	-0.13887989	0.07726913
1421	14.20000000	-0.92196047	-0.09896576	0.13387924	-0.68266219	0.06395352	-0.63834855	-0.62786552	-0.46491857	0.03311242	-0.74608438	-0.28846851	0.16198236	-0.24293178	0.77952236	0.13131433	-0.37030754	0.17552894	0.34507819	-0.73945399	-0.07059985	-0.37414551	-0.78615759	-0.13047673	0.10084188
1422	14.21000000	-0.92493140	-0.09157604	0.12905259	-0.68339144	0.05904232	-0.64082391	-0.62364688	-0.47049679	0.03550519	-0.73897350	-0.29902142	0.16082906	-0.22719960	0.78140426	0.12876648	-0.37980661	0.17421312	0.33329827	-0.74327786	-0.06939095	-0.36965387	-0.78788233	-0.12120358	0.11780983
1423	14.22000000	-0.92648602	-0.08541852	0.12688487	-0.68182051	0.05335214	-0.64442487	-0.62172346	-0.47493905	0.03680376	-0.73363169	-0.31081845	0.15816463	-0.20914053	0.78484710	0.12857203	-0.38587320	0.17069793	0.32372630	-0.74427171	-0.06973504	-0.36527039	-0.79137344	-0.10569627	0.12431678
1424	14.23000000	-0.92653257	-0.08062333	0.12784783	-0.67856753	0.04720882	-0.64850388	-0.62128436	-0.47878149	0.03815771	-0.73000324	-0.32379954	0.15530695	-0.19257984	0.78977784	0.12801930	-0.38869354	0.16582879	0.31762994	-0.74230754	-0.07094934	-0.36092284	-0.79601296	-0.08407830	0.12037240
